<svg xmlns="http://www.w3.org/2000/svg" viewBox="0 0 100 100">
  <defs>
    <style>.g{fill:#b08b59}.n{fill:#091d3e}</style>
  </defs>
  <path class="g" d="M18,30 Q50,2 82,30 L77,35 Q50,10 23,35 Z"/>
  <rect class="n" x="14" y="33" width="72" height="4" rx="1"/>
  <rect class="n" x="43" y="37" width="14" height="38" rx="1"/>
  <line x1="18" y1="35" x2="10" y2="58" stroke="#091d3e" stroke-width="1.8"/>
  <line x1="18" y1="35" x2="26" y2="58" stroke="#091d3e" stroke-width="1.8"/>
  <path class="n" d="M7,58 Q18,66 29,58 L26,61 Q18,69 10,61 Z"/>
  <line x1="82" y1="35" x2="74" y2="58" stroke="#091d3e" stroke-width="1.8"/>
  <line x1="82" y1="35" x2="90" y2="58" stroke="#091d3e" stroke-width="1.8"/>
  <path class="n" d="M71,58 Q82,66 93,58 L90,61 Q82,69 74,61 Z"/>
  <path class="n" d="M28,75 L72,75 L67,83 L33,83 Z"/>
  <rect class="n" x="33" y="83" width="34" height="5" rx="2"/>
</svg>
