<svg id="Camada_1" data-name="Camada 1" xmlns="http://www.w3.org/2000/svg" viewBox="0 0 670.36 170.63"><defs><style>.cls-1{fill:#091d3e;}.cls-2{fill:#b08b59;}.cls-3{fill:#0b1f40;}</style></defs><path class="cls-1" d="M305.69,141.49c-.77,3.94-4.6,6-9.09,5.43-3.48-.43-6.21-3.78-6.21-7.74q0-24.24,0-48.49V87.05c-3.57,5.12-6.79,9.64-9.91,14.24-3.77,5.54-7.41,11.16-11.17,16.7a8.75,8.75,0,0,1-14.56,0c-6.64-9.61-13.18-19.3-19.8-28.93-.34-.49-.37-1.87-1.65-1.06-.06,0-.17.12-.17.14a2.81,2.81,0,0,0,.17.35v1c-.68.69-.42,1.56-.42,2.35q0,23.13,0,46.25c0,.8-.25,1.67.4,2.36-.51,4.08-4.1,7-9.11,6.47-3.66-.42-6.55-4-6.57-8.51,0-12.37,0-24.75,0-37.12,0-10.64,0-21.28,0-31.92,0-6,2.65-9.35,8.41-10.23a9.1,9.1,0,0,1,9.42,4c7.91,11.65,15.74,23.36,23.61,35,.95,1.42,1.91,2.83,3.1,4.58,2.2-3.2,4.35-6.23,6.4-9.32q9.78-14.69,19.5-29.4c2.15-3.25,5.18-5.11,9.06-5,3.6.15,6.7,1.49,8.13,5.22-.61,1.34.06,2.67.06,4q-.1,35.16,0,70.33C305.28,139.59,304.94,140.63,305.69,141.49Z" transform="translate(-19.16 -17.51)"/><path class="cls-1" d="M118.37,169.19a127.15,127.15,0,0,0,20.77-13,24.52,24.52,0,0,0,9.34-13.46c.73-2.6,2.94-3.7,5.6-3.2,2.25.41,3.55,2,3.39,4.68-.33,5.72-3.16,10.4-6.79,14.56-5.43,6.21-12.52,10.27-19.44,14.53-7.94,4.87-16.33,8.9-24.63,13.1a14.14,14.14,0,0,1-13,.25c-13.67-6.52-27.17-13.35-39.32-22.5-6-4.56-10.62-10.25-12.48-17.77-.82-3.3.49-6.1,3.16-6.8,2.86-.75,5.55.94,6.29,4.3,1.22,5.47,4.69,9.23,9,12.48a153.58,153.58,0,0,0,18.17,11.71c.59.33,1.21.9,2.17.61V89.35c-1.07-.62-2.25-.32-3.36-.29-3.1.07-5.58-1-6.83-3.91a8.18,8.18,0,0,1,1-8.79,7.86,7.86,0,0,1,6.56-3.21c14.71.08,29.42,0,44.13,0a7.92,7.92,0,0,1,7.63,6.68,7.8,7.8,0,0,1-5,8.87c-1.68.59-3.44.15-5.16.28-.47,0-1-.1-1.27.5-1.43.44-.85,1.63-.85,2.5q0,37.29,0,74.57C117.36,167.5,116.69,168.85,118.37,169.19ZM78.73,78c-1.65.35-2.72,1.28-2.52,3s1.6,2.31,3.17,2.48c.33,0,.66,0,1,0h38.79a6.06,6.06,0,0,0,1.71-.13,2.61,2.61,0,0,0,2.1-3.13,2.38,2.38,0,0,0-2.69-2.25c-1.81,0-3.62,0-5.43,0-.27-1.19-1.24-.87-2-.87q-16.06,0-32.12,0C80,77.16,79,76.84,78.73,78ZM95.5,89.53c-2-1-4.19-.27-6.28-.44a5.9,5.9,0,0,0-3.13.51,1.18,1.18,0,0,0-.9,1.06,1,1,0,0,0,.89,1c2.37.18,2,1.89,2,3.41v67.3a7.08,7.08,0,0,0,0,2.21c.81,2.3.4,4.1-2.34,5.34,3.22,1,1.89,3.58,2.52,5.51a2.13,2.13,0,0,0,1.75-.75c1.33.6,2.68,1.18,4,1.82,1,.51,1.53.27,1.54-.89.72-.77.41-1.73.42-2.6q0-40.47,0-81C96,91.22,96.33,90.25,95.5,89.53Zm7.88,48a.86.86,0,0,0,0,1.47v8.92a4.08,4.08,0,0,0,0,3.95V177.3a31.94,31.94,0,0,1,3.52-1.59c2.43-.71,3.1-2.14,3.08-4.69-.11-26.56-.06-53.12-.07-79.68a3.28,3.28,0,0,0-.34-2.27c-2,.21-4.13-.57-6.15.46-.91,1.16-.48,2.52-.43,3.75.17,3.7-.59,7.42.39,11.09q0,5.19,0,10.4a13.25,13.25,0,0,0,0,7.41Z" transform="translate(-19.16 -17.51)"/><path class="cls-2" d="M645,92.1c0-7.85,0-15.17,0-22.48a21.7,21.7,0,0,1,.26-3.93c.84-4.62,3.61-6.81,8.32-6.43,4,.32,6.69,3.34,6.69,7.7q0,36.11,0,72.21c0,4.45-2.89,7.65-6.86,7.8-4.87.17-7.63-2.32-8.08-7.29,0-.16-.07-.32-.21-.92-6.7,7.61-15.15,10.18-24.8,9.16-9.83-1-17.23-6.06-22.6-14.18-9-13.63-6.22-32.57,6.45-43.34C615,81.28,632.56,79.56,645,92.1Zm0,23.53A18.63,18.63,0,0,0,626.5,96.38a19.12,19.12,0,0,0-18.75,19.48c.07,10.57,8.39,19.19,18.53,19.18C637.21,135,645.71,125.29,645,115.63Z" transform="translate(-19.16 -17.51)"/><path class="cls-1" d="M316.66,112.29c.52-12.52,11.6-25.27,24.5-28.17,18.35-4.14,34.46,6,38.7,24.27a16.39,16.39,0,0,1,.23,2.43,16.39,16.39,0,0,0-.41,6.93c-1,2.72-3.18,3.47-5.88,3.46-12.95,0-25.9,0-38.85,0h-2.66a15.39,15.39,0,0,0,5.25,9.38c6.65,5.86,18.23,6.46,25.73,1.41,1.49-1,2.9-2.16,4.79-2.36a6.48,6.48,0,0,1,6.78,3.46,6.68,6.68,0,0,1-1.77,7.63,32.44,32.44,0,0,1-19.22,7.14c-2-.91-4.16-.34-6.23-.38-1.55,0-3.11-1.33-4.67-.07a30.17,30.17,0,0,1-21.18-13.32,27.18,27.18,0,0,1-5.07-14.39A12,12,0,0,0,316.66,112.29Zm15.84-2.48c11,.43,21.84.4,32.68,0,.19-6.67-6.56-13.08-14.26-13.64C341.66,95.52,333.44,101.49,332.5,109.81Z" transform="translate(-19.16 -17.51)"/><path class="cls-2" d="M567.75,139.42c-6.33,8.65-15,10-24.27,7.87C533.11,145,526.7,138,524,127.76a31.27,31.27,0,0,1-1-8.06q0-12.75,0-25.49a15.56,15.56,0,0,1,.15-2.46c.91-5.32,3.75-7.62,8.79-7.17,3.78.35,6.31,3.67,6.33,8.39,0,9.24-.06,18.48,0,27.72.07,7,4.55,12.14,11.44,13.43a14.87,14.87,0,0,0,17.81-14.43c.15-8.58,0-17.16.07-25.73A14.49,14.49,0,0,1,567.9,91c1-4.68,4.09-6.92,8.72-6.42,3.71.4,6.27,3.54,6.28,7.9,0,12,0,24.08,0,36.12,0,3.38,0,6.77,0,10.15,0,4.64-2.61,7.82-6.57,8.18-4.6.41-7.33-1.83-8.28-6.81A5,5,0,0,0,567.75,139.42Z" transform="translate(-19.16 -17.51)"/><path class="cls-1" d="M405.21,122.11c1.82,11.43,14.08,16.36,23.46,9.43a8.79,8.79,0,0,1,.83-.51l.65-.64a2.29,2.29,0,0,1,1.05-1.28l.47-.59.52-.89c1.18-.09,1.34-1.13,1.67-1.91a15.58,15.58,0,0,0,1.29-6c.05-9.29,0-18.59,0-27.89,0-.64.13-1.33-.46-1.84,1.14-3.81,3.39-5.51,7.28-5.47,3.67,0,6,1.88,7,5.48-.65.58-.45,1.37-.45,2.08q0,14.74,0,29.48c0,.72-.2,1.5.46,2.07-.26,9.09-7.88,18.8-17.5,22.28a25.25,25.25,0,0,1-8.27,1.91c-3.07-1-6.31,0-9.45-.83-1.55-.41-3.18-1.24-4.91-.6-.39,0-.81.08-1-.37s-.18-.48-.46-.15c-10.28-3.36-16.57-12.82-17.3-23.23.57-.52.43-1.21.43-1.85q0-14,0-27.95c0-.65.14-1.34-.43-1.86.75-4.55,3.64-6.8,8.28-6.43,3.84.32,6.51,3.6,6.45,7.92-1.1.6-.9,1.65-.9,2.63,0,5.35,0,10.7,0,16.06,0,.74.19,1.67-.17,2.18C401.26,116.82,404.84,119.19,405.21,122.11Z" transform="translate(-19.16 -17.51)"/><path class="cls-2" d="M512,95v25.22c0,14.83-8.66,25.42-23.27,27.57-8.88,1.32-17.41-.17-24.68-6.08-2.66-2.16-4.63-4.75-4.31-8.4a6.93,6.93,0,0,1,4.71-6.1,7.1,7.1,0,0,1,8.13,1.89,14.11,14.11,0,0,0,13.05,4.31c6.83-1.26,10.54-6,10.56-13.14.07-16.73,0-33.46,0-50.19,0-.91-.05-1.82,0-2.72.42-5.29,3.46-8.2,8.38-8,4.48.14,7.31,3.32,7.34,8.48C512,76.83,512,85.9,512,95Z" transform="translate(-19.16 -17.51)"/><path class="cls-2" d="M158.5,53.21c0,1.57,0,2.72,0,3.88,0,2.86-1.24,4.45-3.6,4.73-3,.36-4.63-.73-5.5-3.64-.55-1.87-.27-3.76-.31-5.64A5,5,0,0,0,146,47.63c-13.49-6.26-27-12.55-40.49-18.76A13.06,13.06,0,0,0,94.08,29q-20,9.35-40,18.59c-2.35,1.09-3,3.16-3.13,5.46-.1,1.39,0,2.8,0,4.2,0,2.68-1.25,4.2-3.55,4.57-2.69.43-5.43-.77-5.63-3.18-.4-4.85-1.25-9.86,1.67-14.39a13,13,0,0,1,5.67-5C63.4,32.85,77.64,26.17,91.84,19.42a19,19,0,0,1,16.54,0C122.23,25.7,136,32.2,149.81,38.63c4.11,1.93,7.34,4.67,8.45,9.34C158.71,49.85,158.36,51.74,158.5,53.21Z" transform="translate(-19.16 -17.51)"/><path class="cls-3" d="M163.21,77.1c2.4,5.61,4.65,10.93,6.93,16.23,2.71,6.33,5.21,12.76,8.23,18.93,2.72,5.58,1.47,10.24-2.47,14.38-9.79,10.29-26.86,9-34.55-2.56A10.69,10.69,0,0,1,140.4,113c5.1-11.43,9.79-23,14.64-34.58.15-.36.26-.73.46-1.28-5.56,0-10.92,0-16.28,0-3.21,0-4.66-1.19-4.68-3.76,0-2.82,1.38-4.09,4.62-4.09,11.39,0,22.79.07,34.18-.07,2.79,0,4.13,1.37,4.32,3.92s-1.52,4-4.28,4C170.1,77.13,166.82,77.1,163.21,77.1Zm10.41,39.05-14.27-34c-4.82,11.69-9.39,22.76-14,34Z" transform="translate(-19.16 -17.51)"/><path class="cls-2" d="M688.08,116.18c0,7.67,0,15.34,0,23,0,4.66-3.16,7.76-7.74,7.76s-7.58-3.16-7.59-7.92c0-11.79,0-23.59,0-35.38,0-3.55,0-7.09,0-10.64.08-4.94,3.06-7.92,7.83-7.94s7.5,2.85,7.56,7.86c.09,7.75,0,15.5,0,23.25Z" transform="translate(-19.16 -17.51)"/><path class="cls-3" d="M51.43,96.84c2.72,6.32,5.59,12.57,8.09,19,1.23,3.18-.38,6.13-2.16,8.76-8.07,12-28,11.94-36,0-2.27-3.39-2.93-6.94-1.18-10.9C24,105,27.61,96.18,31.31,87.45c1.6,1.25,3.55,2.22,3.73,4.61-.57,3.07-2.07,5.81-3.22,8.66-2.07,5.12-4.26,10.19-6.46,15.43H53.48c-2.23-5.53-4.39-10.88-6.54-16.24C47.64,97.73,49.46,97.19,51.43,96.84Z" transform="translate(-19.16 -17.51)"/><path class="cls-3" d="M99.46,68.12c-8.83,0-17.65,0-26.48,0-2.13,0-3.87-.4-4.14-2.79s1.41-4,4.15-4c9.32-.16,18.63.54,28,.53,8.5,0,17-.68,25.48-.56,1.47,0,2.82.26,3.67,1.53a3.36,3.36,0,0,1,.29,3.5c-.71,1.49-1.95,1.84-3.45,1.83q-12.5,0-25,0H99.46Z" transform="translate(-19.16 -17.51)"/><path class="cls-3" d="M34.59,79.63l.79-2.54c-3.11,0-6.11,0-9.12,0s-4.57-1.35-4.61-3.89,1.54-4,4.49-4q17.31,0,34.62,0c2.78,0,4.35,1.44,4.35,3.88s-1.61,4-4.33,4c-5,0-10.06,0-15.09,0-.73,0-1.66-.48-2.19.51H38.43c.7,1.64,1.88,1.94,2.74,2.59.5.38.87.79.68,1.44a1.22,1.22,0,0,1-1.07.87C37.82,83,36.12,82.21,34.59,79.63Z" transform="translate(-19.16 -17.51)"/><path class="cls-2" d="M680.48,76.75c-5,0-8.44-3.8-8.41-9.3a7.93,7.93,0,0,1,9-8c5.17.48,8.43,2.57,8.49,8A8.81,8.81,0,0,1,680.48,76.75Z" transform="translate(-19.16 -17.51)"/><path class="cls-1" d="M34.59,79.63c1.53,2.58,3.23,3.37,6.19,2.9a1.22,1.22,0,0,0,1.07-.87c.19-.65-.18-1.06-.68-1.44-.86-.65-2-1-2.74-2.59H43.5A74.26,74.26,0,0,1,47.42,87c-2.05.32-4-1-6-.45L39.53,83c-.73.48-.76,1.26-1.09,1.87C37.15,87.16,36.91,90,35,92.06c-.18-2.39-2.13-3.36-3.73-4.61l.81-1.9.35-.68a.19.19,0,0,1,.1-.29,2.08,2.08,0,0,0,2.75.76.77.77,0,0,0,.48-1A2.47,2.47,0,0,0,33.41,83l-.23,0Z" transform="translate(-19.16 -17.51)"/><path class="cls-3" d="M118.37,169.19c-1.68-.34-1-1.69-1-2.6q0-37.29,0-74.57c0-.87-.58-2.06.85-2.5q0,13.73.09,27.46Q118.35,143.09,118.37,169.19Z" transform="translate(-19.16 -17.51)"/><path class="cls-3" d="M305.69,141.49c-.75-.86-.41-1.9-.41-2.85q0-35.16,0-70.33c0-1.35-.67-2.68-.06-4a8,8,0,0,1,1,4.21q0,34.94,0,69.86A6.84,6.84,0,0,1,305.69,141.49Z" transform="translate(-19.16 -17.51)"/><path class="cls-1" d="M51.43,96.84c-2,.35-3.79.89-4.49,3.07a55.33,55.33,0,0,1-3.5-8.38,13.64,13.64,0,0,0,5.43-1C50.06,92.49,50.56,94.74,51.43,96.84Z" transform="translate(-19.16 -17.51)"/><path class="cls-3" d="M434.71,90c.59.51.46,1.2.46,1.84,0,9.3,0,18.6,0,27.89a15.58,15.58,0,0,1-1.29,6c-.33.78-.49,1.82-1.67,1.91a24.4,24.4,0,0,0,2-10.51c-.08-8,0-16,0-24A5.36,5.36,0,0,1,434.71,90Z" transform="translate(-19.16 -17.51)"/><path class="cls-3" d="M449,123.66c-.66-.57-.46-1.35-.46-2.07q0-14.73,0-29.48c0-.71-.2-1.5.45-2.08a4.46,4.46,0,0,1,.51,2.38c0,9.45,0,18.9,0,28.35A18,18,0,0,1,449,123.66Z" transform="translate(-19.16 -17.51)"/><path class="cls-3" d="M405.21,122.11c-.37-2.92-3.95-5.29-1.45-8.74.36-.51.17-1.44.17-2.18,0-5.36,0-10.71,0-16.06,0-1-.2-2,.9-2.63,0,7.41.05,14.82.11,22.22C405,117.19,405.12,119.65,405.21,122.11Z" transform="translate(-19.16 -17.51)"/><path class="cls-3" d="M48.87,90.52a13.64,13.64,0,0,1-5.43,1,17.77,17.77,0,0,1-2.06-5c2.07-.5,4,.77,6,.45A10.38,10.38,0,0,1,48.87,90.52Z" transform="translate(-19.16 -17.51)"/><path class="cls-3" d="M233.28,140.49c-.65-.69-.4-1.56-.4-2.36q0-23.11,0-46.25c0-.79-.26-1.66.42-2.35Q233.3,115,233.28,140.49Z" transform="translate(-19.16 -17.51)"/><path class="cls-3" d="M390.11,91c.57.52.43,1.21.43,1.86q0,14,0,27.95c0,.64.14,1.33-.43,1.85C389.9,112.12,389.84,101.57,390.11,91Z" transform="translate(-19.16 -17.51)"/><path class="cls-3" d="M408.9,146.42c1.73-.64,3.36.19,4.91.6,3.14.81,6.38-.18,9.45.83C418.4,148.15,413.54,148.37,408.9,146.42Z" transform="translate(-19.16 -17.51)"/><path class="cls-3" d="M343,147.41c1.56-1.26,3.12,0,4.67.07,2.07,0,4.2-.53,6.23.38C350.2,148.11,346.55,148.38,343,147.41Z" transform="translate(-19.16 -17.51)"/><path class="cls-3" d="M316.66,112.29a12,12,0,0,1,0,7.41A13.34,13.34,0,0,1,316.66,112.29Z" transform="translate(-19.16 -17.51)"/><path class="cls-3" d="M379.68,117.75a16.39,16.39,0,0,1,.41-6.93A8.63,8.63,0,0,1,379.68,117.75Z" transform="translate(-19.16 -17.51)"/><path class="cls-3" d="M33.18,82.94l.23,0a2.47,2.47,0,0,1,2.39,1.37.77.77,0,0,1-.48,1,2.08,2.08,0,0,1-2.75-.76l.13-.5c.7-.16.91-.52.48-1.14Z" transform="translate(-19.16 -17.51)"/><path class="cls-1" d="M33.18,82.94c.43.62.22,1-.48,1.14Z" transform="translate(-19.16 -17.51)"/><path class="cls-3" d="M32.47,84.87l-.35.68Z" transform="translate(-19.16 -17.51)"/><path class="cls-3" d="M233.3,88.53a2.81,2.81,0,0,1-.17-.35s.11-.09.17-.14Z" transform="translate(-19.16 -17.51)"/><path class="cls-3" d="M431.67,128.52l-.47.59Z" transform="translate(-19.16 -17.51)"/><path class="cls-3" d="M407.41,145.9c.28-.33.39-.18.46.15A.64.64,0,0,1,407.41,145.9Z" transform="translate(-19.16 -17.51)"/><path class="cls-3" d="M430.15,130.39l-.65.64Z" transform="translate(-19.16 -17.51)"/><path class="cls-3" d="M89.22,89.09c0,1-.14,2-.14,3q0,40,0,79.9c0,1-.35,2.2,1,2.77a2.13,2.13,0,0,1-1.75.75c-.63-1.93.7-4.47-2.52-5.51,2.74-1.24,3.15-3,2.34-5.34a7.08,7.08,0,0,1,0-2.21V95.1c0-1.52.37-3.23-2-3.41a1,1,0,0,1-.89-1,1.18,1.18,0,0,1,.9-1.06A5.9,5.9,0,0,1,89.22,89.09Z" transform="translate(-19.16 -17.51)"/><path class="cls-3" d="M95.58,175.64c0-13.61-.1-27.22-.11-40.83q0-22.64,0-45.28c.83.72.49,1.69.49,2.55q0,40.49,0,81C96,173.91,96.3,174.87,95.58,175.64Z" transform="translate(-19.16 -17.51)"/><path class="cls-3" d="M114.85,78H78.73c.27-1.2,1.25-.88,2-.88q16.06,0,32.12,0C113.61,77.16,114.58,76.84,114.85,78Z" transform="translate(-19.16 -17.51)"/><path class="cls-3" d="M103.42,89.53q0,7.41,0,14.84c-1-3.67-.22-7.39-.39-11.09C102.94,92.05,102.51,90.69,103.42,89.53Z" transform="translate(-19.16 -17.51)"/><path class="cls-3" d="M103.39,114.77q0,3.7,0,7.41A13.25,13.25,0,0,1,103.39,114.77Z" transform="translate(-19.16 -17.51)"/><path class="cls-3" d="M103.38,147.93v3.95A4.08,4.08,0,0,1,103.38,147.93Z" transform="translate(-19.16 -17.51)"/><path class="cls-3" d="M103.38,137.54V139A.86.86,0,0,1,103.38,137.54Z" transform="translate(-19.16 -17.51)"/></svg>